<?xml version="1.0" encoding="UTF-8" standalone="no"?>
<!DOCTYPE svg PUBLIC "-//W3C//DTD SVG 1.1//EN"
 "http://www.w3.org/Graphics/SVG/1.1/DTD/svg11.dtd">
<!-- Generated by graphviz version 2.38.0 (20140413.2041)
 -->
<!-- Title: G Pages: 1 -->
<svg width="270pt" height="432pt"
 viewBox="0.00 0.00 270.48 432.00" xmlns="http://www.w3.org/2000/svg" xmlns:xlink="http://www.w3.org/1999/xlink">
<g id="graph0" class="graph" transform="scale(0.64095 0.64095) rotate(0) translate(4 670)">
<title>G</title>
<polygon fill="white" stroke="none" points="-4,4 -4,-670 418,-670 418,4 -4,4"/>
<!-- FAM -->
<g id="node1" class="node"><title>FAM</title>
<polygon fill="none" stroke="black" points="208.626,-483.183 154.626,-483.183 154.626,-447.183 208.626,-447.183 208.626,-483.183"/>
<text text-anchor="middle" x="181.626" y="-461.483" font-family="Times,serif" font-size="14.00">FAM</text>
</g>
<!-- Kassel -->
<g id="node2" class="node"><title>Kassel</title>
<polygon fill="none" stroke="black" points="273.454,-348.532 219.454,-348.532 219.454,-312.532 273.454,-312.532 273.454,-348.532"/>
<text text-anchor="middle" x="246.454" y="-326.832" font-family="Times,serif" font-size="14.00">Kassel</text>
</g>
<!-- FAM&#45;&#45;Kassel -->
<g id="edge1" class="edge"><title>FAM&#45;&#45;Kassel</title>
<path fill="none" stroke="black" d="M190.369,-447.024C202.742,-421.324 225.233,-374.61 237.643,-348.834"/>
<text text-anchor="middle" x="203.506" y="-401.729" font-family="Times,serif" font-size="14.00">199</text>
</g>
<!-- Mannheim -->
<g id="node12" class="node"><title>Mannheim</title>
<polygon fill="none" stroke="black" points="223.967,-606.356 146.967,-606.356 146.967,-570.356 223.967,-570.356 223.967,-606.356"/>
<text text-anchor="middle" x="185.467" y="-584.656" font-family="Times,serif" font-size="14.00">Mannheim</text>
</g>
<!-- FAM&#45;&#45;Mannheim -->
<g id="edge19" class="edge"><title>FAM&#45;&#45;Mannheim</title>
<path fill="none" stroke="black" d="M182.193,-483.358C182.919,-506.646 184.171,-546.783 184.898,-570.107"/>
<text text-anchor="middle" x="176.545" y="-530.532" font-family="Times,serif" font-size="14.00">84</text>
</g>
<!-- Nürnberg -->
<g id="node13" class="node"><title>Nürnberg</title>
<polygon fill="none" stroke="black" points="327.907,-543.609 259.907,-543.609 259.907,-507.609 327.907,-507.609 327.907,-543.609"/>
<text text-anchor="middle" x="293.907" y="-521.909" font-family="Times,serif" font-size="14.00">Nürnberg</text>
</g>
<!-- FAM&#45;&#45;Nürnberg -->
<g id="edge20" class="edge"><title>FAM&#45;&#45;Nürnberg</title>
<path fill="none" stroke="black" d="M208.806,-479.811C224.253,-488.124 243.727,-498.604 260.148,-507.441"/>
<text text-anchor="middle" x="223.977" y="-497.426" font-family="Times,serif" font-size="14.00">226</text>
</g>
<!-- Münster -->
<g id="node3" class="node"><title>Münster</title>
<polygon fill="none" stroke="black" points="301.97,-269.625 239.97,-269.625 239.97,-233.625 301.97,-233.625 301.97,-269.625"/>
<text text-anchor="middle" x="270.97" y="-247.925" font-family="Times,serif" font-size="14.00">Münster</text>
</g>
<!-- Kassel&#45;&#45;Münster -->
<g id="edge2" class="edge"><title>Kassel&#45;&#45;Münster</title>
<path fill="none" stroke="black" d="M252.14,-312.231C256.101,-299.483 261.361,-282.553 265.315,-269.827"/>
<text text-anchor="middle" x="248.228" y="-294.829" font-family="Times,serif" font-size="14.00">201</text>
</g>
<!-- Köln -->
<g id="node4" class="node"><title>Köln</title>
<polygon fill="none" stroke="black" points="198.466,-374.867 144.466,-374.867 144.466,-338.867 198.466,-338.867 198.466,-374.867"/>
<text text-anchor="middle" x="171.466" y="-353.167" font-family="Times,serif" font-size="14.00">Köln</text>
</g>
<!-- Kassel&#45;&#45;Köln -->
<g id="edge3" class="edge"><title>Kassel&#45;&#45;Köln</title>
<path fill="none" stroke="black" d="M219.382,-340.04C212.586,-342.426 205.293,-344.987 198.499,-347.374"/>
<text text-anchor="middle" x="208.94" y="-332.507" font-family="Times,serif" font-size="14.00">243</text>
</g>
<!-- Leipzig -->
<g id="node9" class="node"><title>Leipzig</title>
<polygon fill="none" stroke="black" points="289.161,-405.103 231.161,-405.103 231.161,-369.103 289.161,-369.103 289.161,-405.103"/>
<text text-anchor="middle" x="260.161" y="-383.403" font-family="Times,serif" font-size="14.00">Leipzig</text>
</g>
<!-- Kassel&#45;&#45;Leipzig -->
<g id="edge12" class="edge"><title>Kassel&#45;&#45;Leipzig</title>
<path fill="none" stroke="black" d="M250.866,-348.743C252.432,-355.203 254.192,-362.469 255.757,-368.926"/>
<text text-anchor="middle" x="242.812" y="-362.635" font-family="Times,serif" font-size="14.00">254</text>
</g>
<!-- Bremen -->
<g id="node6" class="node"><title>Bremen</title>
<polygon fill="none" stroke="black" points="330.63,-151.39 270.63,-151.39 270.63,-115.39 330.63,-115.39 330.63,-151.39"/>
<text text-anchor="middle" x="300.63" y="-129.69" font-family="Times,serif" font-size="14.00">Bremen</text>
</g>
<!-- Münster&#45;&#45;Bremen -->
<g id="edge8" class="edge"><title>Münster&#45;&#45;Bremen</title>
<path fill="none" stroke="black" d="M275.54,-233.41C281.13,-211.126 290.534,-173.636 296.104,-151.432"/>
<text text-anchor="middle" x="275.322" y="-196.221" font-family="Times,serif" font-size="14.00">172</text>
</g>
<!-- Köln&#45;&#45;FAM -->
<g id="edge4" class="edge"><title>Köln&#45;&#45;FAM</title>
<path fill="none" stroke="black" d="M173.19,-375.242C175.07,-395.28 178.059,-427.149 179.928,-447.08"/>
<text text-anchor="middle" x="166.059" y="-414.961" font-family="Times,serif" font-size="14.00">190</text>
</g>
<!-- Köln&#45;&#45;Münster -->
<g id="edge7" class="edge"><title>Köln&#45;&#45;Münster</title>
<path fill="none" stroke="black" d="M188.799,-338.535C207.062,-319.219 235.649,-288.984 253.837,-269.747"/>
<text text-anchor="middle" x="210.818" y="-292.941" font-family="Times,serif" font-size="14.00">162</text>
</g>
<!-- Trier -->
<g id="node5" class="node"><title>Trier</title>
<polygon fill="none" stroke="black" points="146.103,-469.378 92.1034,-469.378 92.1034,-433.378 146.103,-433.378 146.103,-469.378"/>
<text text-anchor="middle" x="119.103" y="-447.678" font-family="Times,serif" font-size="14.00">Trier</text>
</g>
<!-- Trier&#45;&#45;FAM -->
<g id="edge5" class="edge"><title>Trier&#45;&#45;FAM</title>
<path fill="none" stroke="black" d="M146.345,-457.393C148.978,-457.974 151.649,-458.564 154.283,-459.146"/>
<text text-anchor="middle" x="139.814" y="-462.069" font-family="Times,serif" font-size="14.00">191</text>
</g>
<!-- Trier&#45;&#45;Köln -->
<g id="edge6" class="edge"><title>Trier&#45;&#45;Köln</title>
<path fill="none" stroke="black" d="M129.2,-433.155C138.472,-416.42 152.139,-391.752 161.401,-375.034"/>
<text text-anchor="middle" x="134.8" y="-407.895" font-family="Times,serif" font-size="14.00">174</text>
</g>
<!-- Greifswald -->
<g id="node7" class="node"><title>Greifswald</title>
<polygon fill="none" stroke="black" points="76.7986,-264.342 -0.201381,-264.342 -0.201381,-228.342 76.7986,-228.342 76.7986,-264.342"/>
<text text-anchor="middle" x="38.2986" y="-242.642" font-family="Times,serif" font-size="14.00">Greifswald</text>
</g>
<!-- Berlin -->
<g id="node8" class="node"><title>Berlin</title>
<polygon fill="none" stroke="black" points="179.336,-300.397 125.336,-300.397 125.336,-264.397 179.336,-264.397 179.336,-300.397"/>
<text text-anchor="middle" x="152.336" y="-278.697" font-family="Times,serif" font-size="14.00">Berlin</text>
</g>
<!-- Greifswald&#45;&#45;Berlin -->
<g id="edge9" class="edge"><title>Greifswald&#45;&#45;Berlin</title>
<path fill="none" stroke="black" d="M76.9063,-258.548C92.8017,-263.574 110.835,-269.276 125.283,-273.844"/>
<text text-anchor="middle" x="90.5948" y="-269.996" font-family="Times,serif" font-size="14.00">221</text>
</g>
<!-- Berlin&#45;&#45;Kassel -->
<g id="edge11" class="edge"><title>Berlin&#45;&#45;Kassel</title>
<path fill="none" stroke="black" d="M179.559,-296.319C192.045,-302.706 206.813,-310.258 219.292,-316.64"/>
<text text-anchor="middle" x="188.925" y="-310.28" font-family="Times,serif" font-size="14.00">380</text>
</g>
<!-- Berlin&#45;&#45;Leipzig -->
<g id="edge10" class="edge"><title>Berlin&#45;&#45;Leipzig</title>
<path fill="none" stroke="black" d="M171.117,-300.635C190.908,-319.853 221.885,-349.935 241.594,-369.074"/>
<text text-anchor="middle" x="195.856" y="-323.654" font-family="Times,serif" font-size="14.00">190</text>
</g>
<!-- Schwerin -->
<g id="node18" class="node"><title>Schwerin</title>
<polygon fill="none" stroke="black" points="155.037,-187.354 87.0369,-187.354 87.0369,-151.354 155.037,-151.354 155.037,-187.354"/>
<text text-anchor="middle" x="121.037" y="-165.654" font-family="Times,serif" font-size="14.00">Schwerin</text>
</g>
<!-- Berlin&#45;&#45;Schwerin -->
<g id="edge38" class="edge"><title>Berlin&#45;&#45;Schwerin</title>
<path fill="none" stroke="black" d="M147.307,-264.234C141.466,-243.139 131.888,-208.547 126.053,-187.471"/>
<text text-anchor="middle" x="126.18" y="-229.653" font-family="Times,serif" font-size="14.00">213</text>
</g>
<!-- Hamburg -->
<g id="node19" class="node"><title>Hamburg</title>
<polygon fill="none" stroke="black" points="257.253,-217.469 189.253,-217.469 189.253,-181.469 257.253,-181.469 257.253,-217.469"/>
<text text-anchor="middle" x="223.253" y="-195.769" font-family="Times,serif" font-size="14.00">Hamburg</text>
</g>
<!-- Berlin&#45;&#45;Hamburg -->
<g id="edge36" class="edge"><title>Berlin&#45;&#45;Hamburg</title>
<path fill="none" stroke="black" d="M168.075,-263.992C179.909,-250.154 196.039,-231.292 207.802,-217.536"/>
<text text-anchor="middle" x="177.439" y="-244.564" font-family="Times,serif" font-size="14.00">288</text>
</g>
<!-- Dresden -->
<g id="node10" class="node"><title>Dresden</title>
<polygon fill="none" stroke="black" points="399.213,-458.121 337.213,-458.121 337.213,-422.121 399.213,-422.121 399.213,-458.121"/>
<text text-anchor="middle" x="368.213" y="-436.421" font-family="Times,serif" font-size="14.00">Dresden</text>
</g>
<!-- Leipzig&#45;&#45;Dresden -->
<g id="edge13" class="edge"><title>Leipzig&#45;&#45;Dresden</title>
<path fill="none" stroke="black" d="M289.401,-401.451C304.151,-408.688 322.048,-417.47 337.057,-424.834"/>
<text text-anchor="middle" x="302.729" y="-401.942" font-family="Times,serif" font-size="14.00">120</text>
</g>
<!-- Eisenach -->
<g id="node11" class="node"><title>Eisenach</title>
<polygon fill="none" stroke="black" points="296.016,-455.591 231.016,-455.591 231.016,-419.591 296.016,-419.591 296.016,-455.591"/>
<text text-anchor="middle" x="263.516" y="-433.891" font-family="Times,serif" font-size="14.00">Eisenach</text>
</g>
<!-- Leipzig&#45;&#45;Eisenach -->
<g id="edge14" class="edge"><title>Leipzig&#45;&#45;Eisenach</title>
<path fill="none" stroke="black" d="M261.372,-405.33C261.68,-409.963 262.011,-414.937 262.318,-419.56"/>
<text text-anchor="middle" x="251.345" y="-416.245" font-family="Times,serif" font-size="14.00">204</text>
</g>
<!-- Leipzig&#45;&#45;Nürnberg -->
<g id="edge34" class="edge"><title>Leipzig&#45;&#45;Nürnberg</title>
<path fill="none" stroke="black" d="M264.573,-405.21C271.04,-431.755 283.026,-480.95 289.494,-507.497"/>
<text text-anchor="middle" x="266.533" y="-460.154" font-family="Times,serif" font-size="14.00">288</text>
</g>
<!-- Dresden&#45;&#45;Eisenach -->
<g id="edge15" class="edge"><title>Dresden&#45;&#45;Eisenach</title>
<path fill="none" stroke="black" d="M337.084,-439.369C324.185,-439.057 309.216,-438.695 296.162,-438.38"/>
<text text-anchor="middle" x="327.123" y="-442.674" font-family="Times,serif" font-size="14.00">273</text>
</g>
<!-- Dresden&#45;&#45;Nürnberg -->
<g id="edge35" class="edge"><title>Dresden&#45;&#45;Nürnberg</title>
<path fill="none" stroke="black" d="M352.455,-458.251C339.845,-472.759 322.247,-493.005 309.642,-507.505"/>
<text text-anchor="middle" x="320.549" y="-486.678" font-family="Times,serif" font-size="14.00">357</text>
</g>
<!-- Eisenach&#45;&#45;Kassel -->
<g id="edge16" class="edge"><title>Eisenach&#45;&#45;Kassel</title>
<path fill="none" stroke="black" d="M260.622,-419.43C257.484,-399.743 252.506,-368.504 249.363,-348.782"/>
<text text-anchor="middle" x="244.492" y="-387.906" font-family="Times,serif" font-size="14.00">129</text>
</g>
<!-- Eisenach&#45;&#45;Köln -->
<g id="edge17" class="edge"><title>Eisenach&#45;&#45;Köln</title>
<path fill="none" stroke="black" d="M242.629,-419.273C227.564,-406.062 207.317,-388.306 192.271,-375.112"/>
<text text-anchor="middle" x="206.95" y="-385.993" font-family="Times,serif" font-size="14.00">207</text>
</g>
<!-- Eisenach&#45;&#45;Trier -->
<g id="edge18" class="edge"><title>Eisenach&#45;&#45;Trier</title>
<path fill="none" stroke="black" d="M230.747,-440.719C205.282,-443.15 170.377,-446.483 146.412,-448.771"/>
<text text-anchor="middle" x="178.079" y="-433.545" font-family="Times,serif" font-size="14.00">365</text>
</g>
<!-- Eisenach&#45;&#45;Nürnberg -->
<g id="edge26" class="edge"><title>Eisenach&#45;&#45;Nürnberg</title>
<path fill="none" stroke="black" d="M269.813,-455.828C275.029,-470.934 282.404,-492.295 287.618,-507.395"/>
<text text-anchor="middle" x="268.215" y="-485.411" font-family="Times,serif" font-size="14.00">237</text>
</g>
<!-- Mannheim&#45;&#45;Nürnberg -->
<g id="edge22" class="edge"><title>Mannheim&#45;&#45;Nürnberg</title>
<path fill="none" stroke="black" d="M216.832,-570.207C231.219,-561.882 248.234,-552.037 262.612,-543.717"/>
<text text-anchor="middle" x="229.222" y="-545.762" font-family="Times,serif" font-size="14.00">237</text>
</g>
<!-- Stuttgart -->
<g id="node14" class="node"><title>Stuttgart</title>
<polygon fill="none" stroke="black" points="313.809,-665.92 250.809,-665.92 250.809,-629.92 313.809,-629.92 313.809,-665.92"/>
<text text-anchor="middle" x="282.309" y="-644.22" font-family="Times,serif" font-size="14.00">Stuttgart</text>
</g>
<!-- Mannheim&#45;&#45;Stuttgart -->
<g id="edge21" class="edge"><title>Mannheim&#45;&#45;Stuttgart</title>
<path fill="none" stroke="black" d="M214.785,-606.389C226.81,-613.785 240.707,-622.332 252.755,-629.743"/>
<text text-anchor="middle" x="223.27" y="-621.866" font-family="Times,serif" font-size="14.00">132</text>
</g>
<!-- Nürnberg&#45;&#45;Stuttgart -->
<g id="edge23" class="edge"><title>Nürnberg&#45;&#45;Stuttgart</title>
<path fill="none" stroke="black" d="M292.195,-543.656C290.003,-566.781 286.223,-606.638 284.027,-629.798"/>
<text text-anchor="middle" x="277.611" y="-590.527" font-family="Times,serif" font-size="14.00">206</text>
</g>
<!-- München -->
<g id="node15" class="node"><title>München</title>
<polygon fill="none" stroke="black" points="414.45,-632.61 346.45,-632.61 346.45,-596.61 414.45,-596.61 414.45,-632.61"/>
<text text-anchor="middle" x="380.45" y="-610.91" font-family="Times,serif" font-size="14.00">München</text>
</g>
<!-- Nürnberg&#45;&#45;München -->
<g id="edge24" class="edge"><title>Nürnberg&#45;&#45;München</title>
<path fill="none" stroke="black" d="M311.42,-543.62C326.336,-558.959 347.672,-580.901 362.666,-596.32"/>
<text text-anchor="middle" x="326.543" y="-573.77" font-family="Times,serif" font-size="14.00">166</text>
</g>
<!-- Stuttgart&#45;&#45;München -->
<g id="edge25" class="edge"><title>Stuttgart&#45;&#45;München</title>
<path fill="none" stroke="black" d="M313.901,-637.197C324.212,-633.697 335.706,-629.796 346.202,-626.234"/>
<text text-anchor="middle" x="335.302" y="-620.515" font-family="Times,serif" font-size="14.00">233</text>
</g>
<!-- Flensburg -->
<g id="node16" class="node"><title>Flensburg</title>
<polygon fill="none" stroke="black" points="325.222,-36.2697 254.222,-36.2697 254.222,-0.269676 325.222,-0.269676 325.222,-36.2697"/>
<text text-anchor="middle" x="289.722" y="-14.5697" font-family="Times,serif" font-size="14.00">Flensburg</text>
</g>
<!-- Flensburg&#45;&#45;Bremen -->
<g id="edge28" class="edge"><title>Flensburg&#45;&#45;Bremen</title>
<path fill="none" stroke="black" d="M291.45,-36.5108C293.493,-58.0669 296.871,-93.7155 298.909,-115.234"/>
<text text-anchor="middle" x="284.68" y="-79.6725" font-family="Times,serif" font-size="14.00">274</text>
</g>
<!-- Kiel -->
<g id="node17" class="node"><title>Kiel</title>
<polygon fill="none" stroke="black" points="231.258,-107.479 177.258,-107.479 177.258,-71.4789 231.258,-71.4789 231.258,-107.479"/>
<text text-anchor="middle" x="204.258" y="-85.7789" font-family="Times,serif" font-size="14.00">Kiel</text>
</g>
<!-- Flensburg&#45;&#45;Kiel -->
<g id="edge27" class="edge"><title>Flensburg&#45;&#45;Kiel</title>
<path fill="none" stroke="black" d="M267.713,-36.6078C254.854,-47.3221 238.692,-60.7887 225.897,-71.4494"/>
<text text-anchor="middle" x="239.805" y="-57.8286" font-family="Times,serif" font-size="14.00">91</text>
</g>
<!-- Kiel&#45;&#45;Bremen -->
<g id="edge31" class="edge"><title>Kiel&#45;&#45;Bremen</title>
<path fill="none" stroke="black" d="M231.36,-101.827C243.496,-107.357 257.856,-113.9 270.345,-119.591"/>
<text text-anchor="middle" x="240.352" y="-114.509" font-family="Times,serif" font-size="14.00">211</text>
</g>
<!-- Kiel&#45;&#45;Schwerin -->
<g id="edge29" class="edge"><title>Kiel&#45;&#45;Schwerin</title>
<path fill="none" stroke="black" d="M185.374,-107.604C171.754,-120.676 153.449,-138.245 139.846,-151.301"/>
<text text-anchor="middle" x="152.11" y="-133.252" font-family="Times,serif" font-size="14.00">150</text>
</g>
<!-- Kiel&#45;&#45;Hamburg -->
<g id="edge30" class="edge"><title>Kiel&#45;&#45;Hamburg</title>
<path fill="none" stroke="black" d="M207.395,-107.641C210.915,-128.021 216.591,-160.889 220.112,-181.279"/>
<text text-anchor="middle" x="206.754" y="-148.26" font-family="Times,serif" font-size="14.00">98</text>
</g>
<!-- Schwerin&#45;&#45;Greifswald -->
<g id="edge39" class="edge"><title>Schwerin&#45;&#45;Greifswald</title>
<path fill="none" stroke="black" d="M101.429,-187.599C88.2399,-199.871 70.9254,-215.983 57.7657,-228.228"/>
<text text-anchor="middle" x="69.0974" y="-211.713" font-family="Times,serif" font-size="14.00">174</text>
</g>
<!-- Hamburg&#45;&#45;Kassel -->
<g id="edge37" class="edge"><title>Hamburg&#45;&#45;Kassel</title>
<path fill="none" stroke="black" d="M226.479,-217.692C230.912,-242.732 238.837,-287.505 243.255,-312.463"/>
<text text-anchor="middle" x="224.367" y="-268.878" font-family="Times,serif" font-size="14.00">310</text>
</g>
<!-- Hamburg&#45;&#45;Bremen -->
<g id="edge33" class="edge"><title>Hamburg&#45;&#45;Bremen</title>
<path fill="none" stroke="black" d="M244.397,-181.412C255.315,-172.089 268.598,-160.745 279.512,-151.424"/>
<text text-anchor="middle" x="251.454" y="-170.218" font-family="Times,serif" font-size="14.00">126</text>
</g>
<!-- Hamburg&#45;&#45;Schwerin -->
<g id="edge32" class="edge"><title>Hamburg&#45;&#45;Schwerin</title>
<path fill="none" stroke="black" d="M189.217,-189.441C178.299,-186.224 166.206,-182.662 155.273,-179.441"/>
<text text-anchor="middle" x="177.495" y="-173.241" font-family="Times,serif" font-size="14.00">112</text>
</g>
</g>
</svg>
